<svg width="20" height="20" viewBox="0 0 20 20" fill="none" xmlns="http://www.w3.org/2000/svg">
<path d="M18.0583 11.916L17.725 16.0827C17.6 17.3577 17.5 18.3327 15.2416 18.3327H4.7583C2.49997 18.3327 2.39997 17.3577 2.27497 16.0827L1.94163 11.916C1.87497 11.2243 2.09163 10.5827 2.4833 10.091C2.49163 10.0827 2.49163 10.0827 2.49997 10.0743C2.9583 9.51602 3.64997 9.16602 4.42497 9.16602H15.575C16.35 9.16602 17.0333 9.51602 17.4833 10.0577C17.4916 10.066 17.5 10.0743 17.5 10.0827C17.9083 10.5743 18.1333 11.216 18.0583 11.916Z" stroke="black" stroke-width="1.5" stroke-miterlimit="10"/>
<path d="M2.91797 9.52474V5.23307C2.91797 2.39974 3.6263 1.69141 6.45964 1.69141H7.51797C8.5763 1.69141 8.81797 2.00807 9.21797 2.54141L10.2763 3.95807C10.543 4.30807 10.7013 4.52474 11.4096 4.52474H13.5346C16.368 4.52474 17.0763 5.23307 17.0763 8.06641V9.55807" stroke="black" stroke-width="1.5" stroke-miterlimit="10" stroke-linecap="round" stroke-linejoin="round"/>
<path d="M7.85938 14.166H12.1427" stroke="black" stroke-width="1.5" stroke-miterlimit="10" stroke-linecap="round" stroke-linejoin="round"/>
</svg>
