<svg width="20" height="20" viewBox="0 0 20 20" fill="none" xmlns="http://www.w3.org/2000/svg">
<path d="M14.168 17.7077H5.83464C2.79297 17.7077 1.04297 15.9577 1.04297 12.916V7.08268C1.04297 4.04102 2.79297 2.29102 5.83464 2.29102H11.668C12.0096 2.29102 12.293 2.57435 12.293 2.91602C12.293 3.25768 12.0096 3.54102 11.668 3.54102H5.83464C3.4513 3.54102 2.29297 4.69935 2.29297 7.08268V12.916C2.29297 15.2993 3.4513 16.4577 5.83464 16.4577H14.168C16.5513 16.4577 17.7096 15.2993 17.7096 12.916V8.74935C17.7096 8.40768 17.993 8.12435 18.3346 8.12435C18.6763 8.12435 18.9596 8.40768 18.9596 8.74935V12.916C18.9596 15.9577 17.2096 17.7077 14.168 17.7077Z" fill="#F9FAFB"/>
<path d="M9.99705 10.7253C9.29705 10.7253 8.58872 10.5086 8.04705 10.067L5.43871 7.98364C5.17205 7.76697 5.12205 7.3753 5.33872 7.10864C5.55538 6.84197 5.94704 6.79197 6.21371 7.00864L8.82204 9.09197C9.45538 9.60031 10.5304 9.60031 11.1637 9.09197L12.147 8.30864C12.4137 8.09197 12.8137 8.13363 13.0221 8.40863C13.2387 8.6753 13.1971 9.0753 12.9221 9.28364L11.9387 10.067C11.4054 10.5086 10.697 10.7253 9.99705 10.7253Z" fill="#F9FAFB"/>
<path d="M16.2513 7.29167C14.7596 7.29167 13.543 6.075 13.543 4.58333C13.543 3.09167 14.7596 1.875 16.2513 1.875C17.743 1.875 18.9596 3.09167 18.9596 4.58333C18.9596 6.075 17.743 7.29167 16.2513 7.29167ZM16.2513 3.125C15.4513 3.125 14.793 3.78333 14.793 4.58333C14.793 5.38333 15.4513 6.04167 16.2513 6.04167C17.0513 6.04167 17.7096 5.38333 17.7096 4.58333C17.7096 3.78333 17.0513 3.125 16.2513 3.125Z" fill="#F9FAFB"/>
</svg>
