<svg width="32" height="27" viewBox="0 0 32 27" fill="none" xmlns="http://www.w3.org/2000/svg">
<path d="M4.56 19.56C4.74667 20.3067 5.06667 20.88 5.52 21.28C6 21.68 6.52 21.96 7.08 22.12C7.64 22.2533 8.17333 22.32 8.68 22.32C9.72 22.32 10.5333 22.12 11.12 21.72C11.7333 21.2933 12.04 20.76 12.04 20.12C12.04 19.5867 11.84 19.1733 11.44 18.88C11.04 18.5867 10.52 18.36 9.88 18.2C9.26667 18.0133 8.62667 17.8267 7.96 17.64C7.24 17.4533 6.46667 17.24 5.64 17C4.84 16.76 4.08 16.4267 3.36 16C2.64 15.5733 2.05333 15.0267 1.6 14.36C1.14667 13.6933 0.92 12.8667 0.92 11.88C0.92 10.6267 1.26667 9.54667 1.96 8.64C2.65333 7.70667 3.6 6.98667 4.8 6.48C6 5.97333 7.34667 5.72 8.84 5.72C10.6267 5.72 12.1733 6.09333 13.48 6.84C14.7867 7.58667 15.7333 8.68 16.32 10.12L12.36 11.4C12.1733 11.0267 11.8933 10.7067 11.52 10.44C11.1733 10.1733 10.7467 9.98667 10.24 9.88C9.76 9.74667 9.26667 9.68 8.76 9.68C7.90667 9.68 7.18667 9.85333 6.6 10.2C6.01333 10.5467 5.72 11.04 5.72 11.68C5.72 12 5.81333 12.28 6 12.52C6.21333 12.76 6.49333 12.96 6.84 13.12C7.18667 13.2533 7.6 13.3867 8.08 13.52C8.56 13.6267 9.06667 13.76 9.6 13.92C10.4533 14.16 11.2933 14.4267 12.12 14.72C12.9733 14.9867 13.7467 15.3333 14.44 15.76C15.16 16.1867 15.72 16.7467 16.12 17.44C16.5467 18.1333 16.7867 19.0133 16.84 20.08C16.84 21.2267 16.5067 22.28 15.84 23.24C15.1733 24.1733 14.2133 24.92 12.96 25.48C11.7333 26.0133 10.2667 26.28 8.56 26.28C6.58667 26.28 4.89333 25.8533 3.48 25C2.06667 24.1467 1.10667 22.7733 0.6 20.88L4.56 19.56ZM22.3741 6V0.399998H26.9741V6H31.6541V9.96H26.9741V18.84C26.9741 20.04 27.2007 20.88 27.6541 21.36C28.1074 21.8133 28.6941 22.0667 29.4141 22.12C30.1607 22.1467 30.9074 22.1067 31.6541 22V25.84C30.5074 26.08 29.3741 26.1467 28.2541 26.04C27.1607 25.96 26.1741 25.6667 25.2941 25.16C24.4141 24.6267 23.7074 23.8533 23.1741 22.84C22.6407 21.8267 22.3741 20.4933 22.3741 18.84V9.96H19.5741V6H22.3741Z" fill="black"/>
</svg>
